<svg width="49" height="49" viewBox="0 0 49 49" fill="none" xmlns="http://www.w3.org/2000/svg">
<path d="M22.1978 3.29727C22.3286 3.29727 22.4592 3.24657 22.5579 3.14582L23.9963 1.67552V7.48548C23.9963 7.76368 24.2219 7.98923 24.5001 7.98923C24.7783 7.98923 25.0038 7.76368 25.0038 7.48548V1.68826L26.4499 3.10305C26.6488 3.29766 26.9677 3.29415 27.1622 3.09512C27.3568 2.89622 27.3532 2.57733 27.1543 2.38285L25.1076 0.380458C24.9696 0.245388 24.7973 0.164398 24.6085 0.137358C24.5734 0.129688 24.5373 0.124878 24.5 0.124878C24.4953 0.124878 24.4909 0.126178 24.4863 0.126308C24.4811 0.126308 24.4762 0.124878 24.471 0.124878C24.2316 0.127478 24.0077 0.223158 23.8401 0.394368L21.8377 2.44135C21.6431 2.64025 21.6468 2.95914 21.8457 3.15362C21.9437 3.24956 22.0708 3.29727 22.1978 3.29727Z" fill="#D2A85C"/>
<path d="M24.5 11.5051C24.2218 11.5051 23.9962 11.7306 23.9962 12.0089V15.9294C23.9962 16.2076 24.2218 16.4332 24.5 16.4332C24.7783 16.4332 25.0038 16.2076 25.0038 15.9294V12.0089C25.0038 11.7305 24.7783 11.5051 24.5 11.5051Z" fill="#D2A85C"/>
<path d="M26.4501 45.8969L25.0038 47.3116V41.5146C25.0038 41.2364 24.7782 41.0108 24.5 41.0108C24.2218 41.0108 23.9963 41.2364 23.9963 41.5146V47.3244L22.5578 45.8541C22.3632 45.6549 22.0442 45.6518 21.8455 45.8461C21.6466 46.0408 21.6431 46.3595 21.8376 46.5584L23.84 48.6055C24.0075 48.7766 24.2316 48.8723 24.4709 48.8749C24.4743 48.8749 24.4777 48.875 24.4811 48.875C24.4843 48.875 24.4874 48.8741 24.4908 48.8741C24.4939 48.8741 24.4969 48.875 24.5 48.875C24.5372 48.875 24.5731 48.8705 24.6079 48.8628C24.7954 48.8362 24.9697 48.7543 25.1075 48.6193L27.1544 46.6169C27.3533 46.4223 27.3568 46.1035 27.1623 45.9046C26.9677 45.7057 26.6487 45.7024 26.4501 45.8969Z" fill="#D2A85C"/>
<path d="M24.5 37.4948C24.7783 37.4948 25.0038 37.2693 25.0038 36.9911V33.0705C25.0038 32.7923 24.7783 32.5668 24.5 32.5668C24.2218 32.5668 23.9962 32.7923 23.9962 33.0705V36.9911C23.9963 37.2694 24.2219 37.4948 24.5 37.4948Z" fill="#D2A85C"/>
<path d="M48.875 24.5C48.875 24.4946 48.8736 24.4896 48.8735 24.4843C48.8742 24.2503 48.7856 24.0163 48.6055 23.8401L46.5585 21.8377C46.3596 21.6431 46.0407 21.6468 45.8462 21.8457C45.6516 22.0446 45.6553 22.3635 45.8542 22.5579L47.3246 23.9964H41.5147C41.2365 23.9964 41.0109 24.2219 41.0109 24.5001C41.0109 24.7783 41.2365 25.0039 41.5147 25.0039H47.3119L45.8969 26.45C45.7023 26.6489 45.7059 26.9678 45.9049 27.1623C46.0029 27.2582 46.13 27.3059 46.257 27.3059C46.3878 27.3059 46.5185 27.2552 46.6171 27.1545L48.6196 25.1076C48.7581 24.9661 48.8374 24.7897 48.8632 24.6071C48.8706 24.5724 48.875 24.5368 48.875 24.5Z" fill="#D2A85C"/>
<path d="M33.0706 23.9962C32.7924 23.9962 32.5669 24.2218 32.5669 24.5001C32.5669 24.7783 32.7924 25.0039 33.0706 25.0039H36.9911C37.2693 25.0039 37.4948 24.7783 37.4948 24.5001C37.4948 24.2218 37.2693 23.9962 36.9911 23.9962H33.0706Z" fill="#D2A85C"/>
<path d="M1.68825 25.0036H7.48534C7.76354 25.0036 7.98909 24.778 7.98909 24.4998C7.98909 24.2217 7.76354 23.9961 7.48534 23.9961H1.67551L3.14594 22.5577C3.34484 22.3631 3.34835 22.0443 3.15387 21.8454C2.95939 21.6464 2.64024 21.6433 2.4416 21.8375L0.39449 23.8398C0.2147 24.0159 0.12591 24.2497 0.12669 24.4835C0.12656 24.4889 0.125 24.4941 0.125 24.4997C0.125 24.5366 0.12955 24.5725 0.13709 24.6072C0.16296 24.7896 0.24226 24.9658 0.38058 25.1072L2.3831 27.1542C2.48177 27.2552 2.61242 27.3056 2.7432 27.3056C2.87021 27.3056 2.99748 27.2578 3.09537 27.162C3.29427 26.9674 3.29778 26.6486 3.1033 26.4497L1.68825 25.0036Z" fill="#D2A85C"/>
<path d="M12.0088 23.9962C11.7306 23.9962 11.5051 24.2218 11.5051 24.5001C11.5051 24.7783 11.7306 25.0039 12.0088 25.0039H15.9292C16.2074 25.0039 16.433 24.7783 16.433 24.5001C16.433 24.2218 16.2074 23.9962 15.9292 23.9962H12.0088Z" fill="#D2A85C"/>
<path d="M36.5313 12.9725C36.6601 12.9725 36.7892 12.9234 36.8875 12.825L40.9866 8.72568L41.0087 10.749C41.0119 11.0254 41.2368 11.2472 41.5124 11.2472C41.5142 11.2472 41.5161 11.2472 41.5181 11.2472C41.7963 11.244 42.0194 11.0161 42.0163 10.7379L41.9849 7.87444C41.9827 7.67684 41.9141 7.4964 41.8037 7.34924C41.7845 7.31921 41.7622 7.29048 41.736 7.26422C41.7326 7.26084 41.7286 7.25863 41.7252 7.25538C41.5624 7.0908 41.3374 6.9881 41.0888 6.9881C41.0855 6.9881 41.0822 6.9881 41.0789 6.9881L38.2156 7.01956C37.9374 7.02268 37.7143 7.25057 37.7174 7.52877C37.7205 7.80697 37.9576 8.03317 38.2266 8.02693L40.2835 8.00431L36.1753 12.1126C35.9785 12.3093 35.9785 12.6281 36.1753 12.8248C36.2735 12.9232 36.4024 12.9725 36.5313 12.9725Z" fill="#D2A85C"/>
<path d="M30.5604 18.9433C30.6893 18.9433 30.8184 18.8942 30.9167 18.7958L33.6889 16.0235C33.8857 15.8269 33.8857 15.508 33.6889 15.3113C33.4924 15.1145 33.1732 15.1145 32.9766 15.3113L30.2044 18.0835C30.0076 18.2802 30.0076 18.5991 30.2044 18.7958C30.3025 18.8942 30.4315 18.9433 30.5604 18.9433Z" fill="#D2A85C"/>
<path d="M12.1127 36.1749L8.00455 40.2832L8.02704 38.2263C8.03016 37.9481 7.80708 37.7201 7.52888 37.7171C7.25237 37.7163 7.02278 37.9371 7.01966 38.2153L6.98833 41.0787C6.9856 41.3305 7.08844 41.5588 7.25445 41.7235C7.25809 41.7274 7.26069 41.7319 7.26446 41.7357C7.29059 41.7618 7.31893 41.7839 7.34883 41.803C7.49612 41.9138 7.67682 41.9824 7.87481 41.9846L10.7381 42.0161C10.7399 42.0161 10.7417 42.0161 10.7438 42.0161C11.0194 42.0161 11.2443 41.7942 11.2474 41.5179C11.2505 41.2397 11.0275 41.0117 10.7493 41.0087L8.72618 40.9865L12.8252 36.8873C13.0221 36.6906 13.0221 36.3717 12.8252 36.175C12.6282 35.9782 12.3091 35.9782 12.1127 36.1749Z" fill="#D2A85C"/>
<path d="M18.0835 30.2042L15.3112 32.9763C15.1144 33.173 15.1144 33.4919 15.3112 33.6886C15.4095 33.787 15.5385 33.8361 15.6674 33.8361C15.7963 33.8361 15.9254 33.787 16.0236 33.6886L18.7959 30.9164C18.9927 30.7197 18.9927 30.4008 18.7959 30.2042C18.5992 30.0075 18.28 30.0075 18.0835 30.2042Z" fill="#D2A85C"/>
<path d="M41.4753 37.7171C41.1971 37.7202 40.974 37.9481 40.9771 38.2263L40.9998 40.2832L36.8917 36.1749C36.6949 35.9781 36.376 35.9781 36.1795 36.1749C35.9827 36.3716 35.9827 36.6905 36.1795 36.8872L40.2784 40.9864L38.2554 41.0086C37.9772 41.0117 37.7541 41.2396 37.7572 41.5178C37.7604 41.7942 37.9853 42.016 38.2609 42.016C38.2627 42.016 38.2646 42.016 38.2666 42.016L41.1296 41.9845C41.3276 41.9823 41.5083 41.9138 41.6556 41.803C41.6855 41.7838 41.714 41.7617 41.7401 41.7356C41.744 41.7317 41.7465 41.7271 41.7502 41.7232C41.9162 41.5584 42.0189 41.3302 42.0162 41.0784L41.9847 38.2152C41.9815 37.9371 41.7489 37.7186 41.4753 37.7171Z" fill="#D2A85C"/>
<path d="M30.9208 30.2043C30.7243 30.0075 30.4051 30.0075 30.2086 30.2043C30.0118 30.401 30.0118 30.7198 30.2086 30.9165L32.9808 33.6887C33.079 33.7871 33.208 33.8362 33.3369 33.8362C33.4658 33.8362 33.5948 33.7871 33.6931 33.6887C33.8899 33.492 33.8899 33.1731 33.6931 32.9764L30.9208 30.2043Z" fill="#D2A85C"/>
<path d="M7.48641 11.2472C7.48823 11.2472 7.49018 11.2472 7.49213 11.2472C7.76773 11.2472 7.99263 11.0253 7.99575 10.749L8.01785 8.72568L12.117 12.825C12.2154 12.9234 12.3443 12.9725 12.4732 12.9725C12.6022 12.9725 12.7312 12.9234 12.8294 12.825C13.0263 12.6283 13.0263 12.3094 12.8294 12.1127L8.72128 8.00444L10.7782 8.02706C11.045 8.02823 11.2844 7.80736 11.2874 7.5289C11.2905 7.2507 11.0674 7.02268 10.7892 7.01969L7.92568 6.98823C7.4205 6.98082 7.02543 7.38044 7.01971 7.87457L6.98837 10.738C6.98525 11.016 7.20834 11.244 7.48641 11.2472Z" fill="#D2A85C"/>
<path d="M18.0878 18.7958C18.1861 18.8942 18.315 18.9433 18.444 18.9433C18.5729 18.9433 18.7019 18.8942 18.8002 18.7958C18.997 18.5991 18.997 18.2802 18.8002 18.0835L16.0279 15.3113C15.8314 15.1145 15.5122 15.1145 15.3156 15.3113C15.1188 15.508 15.1188 15.8269 15.3156 16.0235L18.0878 18.7958Z" fill="#D2A85C"/>
</svg>
