<svg width="46" height="46" viewBox="0 0 46 46" fill="none" xmlns="http://www.w3.org/2000/svg">
<g clip-path="url(#clip0)">
<path d="M43.8295 14.3044C40.0472 6.21532 31.9246 1.04649 22.995 1.0462C10.2923 1.04917 -0.00287443 11.3491 6.02013e-07 24.0517C0.00201312 32.9797 5.17055 41.1 13.2582 44.8816C13.642 45.0607 14.0984 44.8947 14.2775 44.5109C14.4566 44.1271 14.2906 43.6707 13.9068 43.4916C3.16646 38.4711 -1.47039 25.6944 3.55009 14.9541C8.57057 4.21372 21.3474 -0.423128 32.0877 4.59735C42.8281 9.61782 47.465 22.3946 42.4444 33.1349C40.313 37.6945 36.6473 41.3602 32.0877 43.4915C31.7039 43.6706 31.5379 44.127 31.7171 44.5108C31.8962 44.8946 32.3525 45.0606 32.7364 44.8815C44.2433 39.5013 49.2098 25.8113 43.8295 14.3044Z" fill="#D2A85C"/>
<path d="M36.7951 24.0464C36.7969 16.4248 30.6198 10.2449 22.9982 10.243C15.3766 10.2412 9.19655 16.4184 9.19482 24.04C9.19348 29.7073 12.6572 34.7993 17.9288 36.8798C18.3262 37.026 18.7668 36.8222 18.913 36.4249C19.0541 36.0413 18.8694 35.6143 18.493 35.4546C12.191 32.9682 9.09784 25.8438 11.5842 19.5418C14.0705 13.2398 21.1949 10.1466 27.4969 12.633C33.7989 15.1193 36.8921 22.2437 34.4058 28.5457C33.159 31.706 30.6572 34.2078 27.4969 35.4546C27.0994 35.6007 26.8958 36.0414 27.0419 36.4387C27.1881 36.8361 27.6287 37.0398 28.0262 36.8936C28.038 36.8893 28.0496 36.8846 28.0612 36.8797C33.3428 34.8154 36.8125 29.7172 36.7951 24.0464Z" fill="#D2A85C"/>
<path d="M27.595 24.0465C27.595 21.5059 25.5355 19.4464 22.995 19.4464C20.4544 19.4464 18.3949 21.5059 18.3949 24.0465C18.3949 26.587 20.4544 28.6465 22.995 28.6465C25.5345 28.644 27.5924 26.586 27.595 24.0465ZM22.995 27.1131C21.3013 27.1131 19.9283 25.7401 19.9283 24.0465C19.9283 22.3528 21.3013 20.9798 22.995 20.9798C24.6887 20.9798 26.0617 22.3528 26.0617 24.0465C26.0617 25.7401 24.6887 27.1131 22.995 27.1131Z" fill="#D2A85C"/>
</g>
<defs>
<clipPath id="clip0">
<rect width="46" height="46" fill="white"/>
</clipPath>
</defs>
</svg>
