<svg width="49" height="48" viewBox="0 0 49 48" fill="none" xmlns="http://www.w3.org/2000/svg">
<path fill-rule="evenodd" clip-rule="evenodd" d="M0.500042 0.81665C0.776184 0.81665 1.00004 1.04051 1.00004 1.31665V13.4371H8.77947C8.89841 13.4371 9.01346 13.4795 9.10395 13.5567L16.6441 19.9884C16.6909 20.0283 16.7299 20.0765 16.7592 20.1305L21.9212 29.6548L29.3822 18.8165C29.4676 18.6925 29.6044 18.6135 29.7545 18.6016C29.9047 18.5897 30.0522 18.6461 30.1561 18.7552L36.5087 25.4248L46.1351 17.5793H42.5625C42.2863 17.5793 42.0625 17.3554 42.0625 17.0793C42.0625 16.8032 42.2863 16.5793 42.5625 16.5793H47.54C47.6786 16.5793 47.811 16.6368 47.9056 16.7382C48.0001 16.8395 48.0484 16.9756 48.0388 17.1138L47.6938 22.0972C47.6748 22.3726 47.436 22.5805 47.1605 22.5614C46.885 22.5424 46.6771 22.3036 46.6962 22.0281L46.9615 18.1958L37.2004 26.1511L46.4663 35.8794V32.6461C46.4663 32.37 46.6902 32.1461 46.9663 32.1461C47.2425 32.1461 47.4663 32.37 47.4663 32.6461V37.1293C47.4663 37.2647 47.4114 37.3943 47.3141 37.4885C47.2169 37.5827 47.0856 37.6334 46.9502 37.6291L42.4662 37.4844C42.1902 37.4755 41.9737 37.2446 41.9826 36.9686C41.9915 36.6926 42.2224 36.476 42.4984 36.4849L45.7624 36.5902L36.423 26.7848L24.9642 36.1237C24.8488 36.2178 24.6975 36.2555 24.5514 36.2266C24.4053 36.1977 24.2797 36.1053 24.2088 35.9743L21.8195 31.566L16.3842 39.4616C16.2805 39.6122 16.1029 39.6942 15.9209 39.6754C15.739 39.6566 15.5819 39.54 15.5112 39.3713L11.3508 29.4418L7.22073 34.5512C7.12215 34.6732 6.97206 34.7418 6.81533 34.7366C6.6586 34.7315 6.51338 34.653 6.42308 34.5248L1.00004 26.8247V46.1356H46.9663C47.2425 46.1356 47.4663 46.3595 47.4663 46.6356C47.4663 46.9118 47.2425 47.1356 46.9663 47.1356H0.500042C0.223899 47.1356 4.16889e-05 46.9118 4.16889e-05 46.6356V25.2533C-1.39291e-05 25.249 -1.38636e-05 25.2447 4.16889e-05 25.2404V13.9371V1.31665C4.16889e-05 1.04051 0.223899 0.81665 0.500042 0.81665ZM1.00004 25.088L6.85934 33.4076L11.0995 28.1619C11.2102 28.025 11.3846 27.9564 11.5589 27.9812C11.7331 28.0061 11.8815 28.1207 11.9495 28.283L16.0797 38.1404L21.2848 30.5792L15.9244 20.6888L8.59519 14.4371H1.00004V25.088ZM22.4559 30.6415L24.8004 34.9672L35.7312 26.0585L29.8567 19.8908L22.4559 30.6415Z" fill="#D2A85C"/>
</svg>
